<?xml version="1.0" encoding="UTF-8" standalone="no"?> <svg xmlns="http://www.w3.org/2000/svg" viewBox="0 0 48 48"><title>people-chat-connection-data-information-message</title><g id="_23-communication" data-name="23-communication"><circle cx="12" cy="30" r="4" style="fill:#ccc"/><path d="M21,45h0A28.465,28.465,0,0,1,3,45H3v-.384A11.55,11.55,0,0,1,10,34h4a11.55,11.55,0,0,1,7,10.616Z" style="fill:#ccc"/><circle cx="36" cy="30" r="4" style="fill:#ccc"/><path d="M45,45h0a28.465,28.465,0,0,1-18,0h0v-.384A11.55,11.55,0,0,1,34,34h4a11.55,11.55,0,0,1,7,10.616Z" style="fill:#ccc"/><path d="M15.452,33.6a5,5,0,1,0-6.9,0A12.53,12.53,0,0,0,2,44.616V45a1,1,0,0,0,.684.948,29.642,29.642,0,0,0,18.632,0A1,1,0,0,0,22,45v-.384A12.53,12.53,0,0,0,15.452,33.6ZM12,27a3,3,0,1,1-3,3A3,3,0,0,1,12,27ZM4.005,44.271A10.54,10.54,0,0,1,10.21,35h3.58A10.54,10.54,0,0,1,20,44.271,27.664,27.664,0,0,1,4.005,44.271Z" style="fill:#4d4d4d"/><path d="M39.452,33.6a5,5,0,1,0-6.9,0A12.527,12.527,0,0,0,26,44.616V45a1,1,0,0,0,.684.948,29.642,29.642,0,0,0,18.632,0A1,1,0,0,0,46,45v-.384A12.527,12.527,0,0,0,39.452,33.6ZM36,27a3,3,0,1,1-3,3A3,3,0,0,1,36,27ZM28.006,44.271A10.537,10.537,0,0,1,34.21,35h3.58a10.537,10.537,0,0,1,6.2,9.271A27.657,27.657,0,0,1,28.006,44.271Z" style="fill:#4d4d4d"/><path d="M24,39a1,1,0,0,1-.914-.594L19.35,30H18V28h2a1,1,0,0,1,.914.594L24,35.538l3.086-6.944A1,1,0,0,1,28,28h2v2H28.649l-3.735,8.406A1,1,0,0,1,24,39Z" style="fill:#4d4d4d"/><path d="M45.264,30H43V28h2.264A.737.737,0,0,0,46,27.264V2.736A.737.737,0,0,0,45.264,2H2.736A.737.737,0,0,0,2,2.736V27.264A.737.737,0,0,0,2.736,28H5v2H2.736A2.74,2.74,0,0,1,0,27.264V2.736A2.74,2.74,0,0,1,2.736,0H45.264A2.74,2.74,0,0,1,48,2.736V27.264A2.74,2.74,0,0,1,45.264,30Z" style="fill:#4d4d4d"/><rect x="12" y="5" width="22" height="2" style="fill:#4d4d4d"/><rect x="36" y="5" width="6" height="2" style="fill:#4d4d4d"/><rect x="6" y="10" width="17" height="2" style="fill:#4d4d4d"/><rect x="25" y="10" width="11" height="2" style="fill:#4d4d4d"/><rect x="6" y="15" width="24" height="2" style="fill:#4d4d4d"/><rect x="32" y="15" width="8" height="2" style="fill:#4d4d4d"/><rect x="6" y="20" width="14" height="2" style="fill:#4d4d4d"/><rect x="22" y="20" width="13" height="2" style="fill:#4d4d4d"/><rect x="37" y="20" width="6" height="2" style="fill:#4d4d4d"/><rect x="8" y="5" width="2" height="2" style="fill:#4d4d4d"/><rect x="38" y="10" width="2" height="2" style="fill:#4d4d4d"/></g></svg>